<svg width="800" height="600" xmlns="http://www.w3.org/2000/svg">
  <!-- 定义手绘效果的滤镜 -->
  <filter id="handDrawn">
    <feTurbulence type="fractalNoise" baseFrequency="0.01" numOctaves="3" result="noise"/>
    <feDisplacementMap in="SourceGraphic" in2="noise" scale="2" xChannelSelector="R" yChannelSelector="G"/>
  </filter>
  
  <!-- 定义箭头标记 -->
  <defs>
    <marker id="arrow" viewBox="0 0 10 10" refX="9" refY="5"
        markerWidth="6" markerHeight="6" orient="auto">
      <path d="M 0 0 L 10 5 L 0 10 z" fill="black" filter="url(#handDrawn)"/>
    </marker>
  </defs>
  
  <!-- 背景 -->
  <rect width="800" height="600" fill="white"/>
  
  <!-- 标题 -->
  <text x="400" y="40" font-family="Arial" font-size="24" text-anchor="middle" fill="black" style="font-weight:bold" filter="url(#handDrawn)">机器学习模型训练的本质</text>
  
  <!-- 1. 数据输入区域 -->
  <g transform="translate(100, 120)">
    <text x="0" y="-20" font-family="Arial" font-size="18" fill="black" filter="url(#handDrawn)">数据输入</text>
    
    <!-- 数据符号 -->
    <g filter="url(#handDrawn)">
      <rect x="0" y="0" width="120" height="80" stroke="black" stroke-width="2" fill="none" stroke-dasharray="5,3"/>
      <text x="60" y="45" font-family="Arial" font-size="14" text-anchor="middle" fill="black">X, y</text>
      <text x="60" y="65" font-family="Arial" font-size="12" text-anchor="middle" fill="black">(特征, 标签)</text>
    </g>
    
    <!-- 数据流向箭头 -->
    <path d="M120,40 L180,40" stroke="black" stroke-width="2" fill="none" marker-end="url(#arrow)" filter="url(#handDrawn)"/>
  </g>
  
  <!-- 2. 模型与参数 -->
  <g transform="translate(280, 120)">
    <text x="60" y="-20" font-family="Arial" font-size="18" fill="black" filter="url(#handDrawn)">模型与参数</text>
    
    <!-- 模型框架 -->
    <g filter="url(#handDrawn)">
      <rect x="0" y="0" width="120" height="80" stroke="black" stroke-width="2" fill="none"/>
      <text x="60" y="30" font-family="Arial" font-size="14" text-anchor="middle" fill="black">f(X; θ)</text>
      <text x="60" y="55" font-family="Arial" font-size="12" text-anchor="middle" fill="black">θ: 模型参数</text>
    </g>
    
    <!-- 输出箭头 -->
    <path d="M120,40 L180,40" stroke="black" stroke-width="2" fill="none" marker-end="url(#arrow)" filter="url(#handDrawn)"/>
  </g>
  
  <!-- 3. 预测结果 -->
  <g transform="translate(460, 120)">
    <text x="60" y="-20" font-family="Arial" font-size="18" fill="black" filter="url(#handDrawn)">预测结果</text>
    
    <!-- 预测框 -->
    <g filter="url(#handDrawn)">
      <rect x="0" y="0" width="120" height="80" stroke="black" stroke-width="2" fill="none"/>
      <text x="60" y="45" font-family="Arial" font-size="14" text-anchor="middle" fill="black">ŷ = f(X; θ)</text>
    </g>
    
    <!-- 向下箭头到损失函数 -->
    <path d="M60,80 L60,130" stroke="black" stroke-width="2" fill="none" marker-end="url(#arrow)" filter="url(#handDrawn)"/>
  </g>
  
  <!-- 4. 损失函数 -->
  <g transform="translate(460, 250)">
    <text x="60" y="-20" font-family="Arial" font-size="18" fill="black" filter="url(#handDrawn)">损失函数</text>
    
    <!-- 损失函数框 -->
    <g filter="url(#handDrawn)">
      <rect x="0" y="0" width="120" height="80" stroke="black" stroke-width="2" fill="none"/>
      <text x="60" y="30" font-family="Arial" font-size="14" text-anchor="middle" fill="black">L(ŷ, y)</text>
      <text x="60" y="55" font-family="Arial" font-size="12" text-anchor="middle" fill="black">预测值与真实值的差距</text>
    </g>
    
    <!-- 向左箭头到梯度下降 -->
    <path d="M0,40 L-70,40" stroke="black" stroke-width="2" fill="none" marker-end="url(#arrow)" filter="url(#handDrawn)"/>
  </g>
  
  <!-- 5. 梯度下降 -->
  <g transform="translate(280, 250)">
    <text x="60" y="-20" font-family="Arial" font-size="18" fill="black" filter="url(#handDrawn)">梯度下降</text>
    
    <!-- 梯度下降图示 -->
    <g filter="url(#handDrawn)">
      <rect x="0" y="0" width="120" height="80" stroke="black" stroke-width="2" fill="none"/>
      <path d="M20,20 Q60,80 100,20" stroke="black" stroke-width="2" fill="none"/>
      <circle cx="60" cy="50" r="5" fill="black"/>
      <path d="M60,50 L70,30" stroke="black" stroke-width="2" fill="none" marker-end="url(#arrow)"/>
      <text x="60" y="70" font-family="Arial" font-size="12" text-anchor="middle" fill="black">θ = θ - α∇L</text>
    </g>
    
    <!-- 向上箭头回到模型参数 -->
    <path d="M60,0 L60,-50" stroke="black" stroke-width="2" fill="none" marker-end="url(#arrow)" filter="url(#handDrawn)"/>
  </g>
  
  <!-- 6. 迭代循环箭头 -->
  <path d="M280,220 Q200,180 280,140" stroke="black" stroke-width="3" fill="none" marker-end="url(#arrow)" filter="url(#handDrawn)" stroke-dasharray="5,3"/>
  <text x="200" y="180" font-family="Arial" font-size="16" fill="black" filter="url(#handDrawn)">迭代优化</text>
  
  <!-- 7. 收敛说明 -->
  <g transform="translate(400, 380)">
    <rect x="-150" y="0" width="300" height="120" stroke="black" stroke-width="2" fill="none" rx="10" ry="10" filter="url(#handDrawn)"/>
    <text x="0" y="30" font-family="Arial" font-size="18" text-anchor="middle" fill="black" filter="url(#handDrawn)">模型训练的本质</text>
    <text x="0" y="60" font-family="Arial" font-size="14" text-anchor="middle" fill="black" filter="url(#handDrawn)">通过不断迭代调整模型参数θ</text>
    <text x="0" y="85" font-family="Arial" font-size="14" text-anchor="middle" fill="black" filter="url(#handDrawn)">使损失函数L(ŷ, y)最小化</text>
    <text x="0" y="110" font-family="Arial" font-size="14" text-anchor="middle" fill="black" filter="url(#handDrawn)">从而使模型预测更接近真实值</text>
  </g>
  
  <!-- 8. 手绘装饰元素 -->
  <g filter="url(#handDrawn)">
    <!-- 左上角装饰 -->
    <path d="M50,50 Q70,30 90,50" stroke="black" stroke-width="1" fill="none"/>
    <path d="M55,60 Q75,40 95,60" stroke="black" stroke-width="1" fill="none"/>
    
    <!-- 右下角装饰 -->
    <path d="M700,500 Q680,520 660,500" stroke="black" stroke-width="1" fill="none"/>
    <path d="M695,490 Q675,510 655,490" stroke="black" stroke-width="1" fill="none"/>
  </g>
</svg>